<svg width="120" height="125" fill="none" xmlns="http://www.w3.org/2000/svg"><path d="M42.157 29.709h9.307c2.47 0 4.57.11 6.304.329 1.732.22 3.331.733 4.795 1.54 1.962 1.103 3.465 2.582 4.509 4.432 1.046 1.85 1.57 3.905 1.57 6.162a10.95 10.95 0 01-1.543 5.677 11.683 11.683 0 01-4.194 4.173c-1.768 1.043-3.697 1.59-5.788 1.642L68.11 67.933h-4.85L49.992 50.608h1.163c1.9 0 3.515-.061 4.845-.184 1.33-.122 2.55-.406 3.66-.852 1.6-.723 2.844-1.768 3.736-3.13.889-1.365 1.336-2.905 1.336-4.623 0-1.33-.326-2.612-.981-3.852-.654-1.236-1.541-2.23-2.66-2.98a8.634 8.634 0 00-3.728-1.516c-1.342-.202-3.042-.302-5.098-.302H46.07v34.764h-3.91V29.709h-.002zm37.822 3.46h-8.983v-3.46H92.77v3.46h-8.88v34.764h-3.91V33.169zm18.661-3.46H120v3.46h-17.449v13.765h16.867v3.46h-16.867v14.079H120v3.46H98.64V29.709zM21.662 51.644H11.421l7.615-17.542 7.498 17.542 1.537 3.458 5.653 12.831h4.23l-16.75-38.224h-4.337L0 67.933h4.233l5.653-12.831h13.517l-1.741-3.458zM16.579 0h2.354v20.94h9.751v2.086H16.579V0zm32.037 23.023h-2.263v-3.208a6.443 6.443 0 01-1.701 1.98c-.7.54-1.489.947-2.368 1.222a8.985 8.985 0 01-2.686.41c-1.357 0-2.703-.3-4.042-.9-1.338-.6-2.546-1.505-3.63-2.712-.398-.427-.785-1.146-1.158-2.157a9.363 9.363 0 01-.56-3.266c0-1.034.209-2.072.627-3.111.417-1.04.816-1.726 1.194-2.061 2.29-2.41 4.792-3.613 7.508-3.613a8.84 8.84 0 014.015.931c1.24.621 2.175 1.516 2.801 2.682V5.978h2.263v17.046zm-16.053-8.441c0 1.207.326 2.32.975 3.341a6.922 6.922 0 002.6 2.41 7.159 7.159 0 003.46.879c1.223 0 2.3-.302 3.34-.905a6.954 6.954 0 002.488-2.427 6.16 6.16 0 00.93-3.27 6.789 6.789 0 00-.894-3.41 6.534 6.534 0 00-2.464-2.476c-1.045-.603-2.2-.905-3.459-.905-1.258 0-2.415.3-3.482.9a6.87 6.87 0 00-2.546 2.462 6.455 6.455 0 00-.944 3.4M52.626 0h2.357v9.157c.542-1.126 1.436-2 2.674-2.62a8.627 8.627 0 013.918-.932c1.664 0 3.223.384 4.676 1.156a9.005 9.005 0 013.463 3.192 8.24 8.24 0 011.282 4.478 8.57 8.57 0 01-.626 3.243c-.418 1.032-.898 1.84-1.443 2.423-1.13 1.252-2.259 2.12-3.386 2.604-1.127.484-2.375.727-3.743.727-1.367 0-2.672-.292-3.989-.874-1.317-.582-2.3-1.403-2.954-2.457v2.927h-2.231V0h.002zm4.043 9.874c-1.227 1.207-1.843 2.796-1.843 4.769 0 1.228.313 2.345.937 3.354a6.526 6.526 0 002.543 2.365 7.339 7.339 0 003.494.852 6.733 6.733 0 003.432-.905 6.713 6.713 0 002.497-2.453 6.495 6.495 0 00.912-3.366A6.535 6.535 0 0066.6 9.702a6.784 6.784 0 00-2.238-1.389 7.506 7.506 0 00-2.726-.494c-1.944 0-3.6.684-4.967 2.055zm-8.249 82.95V89.88h.91v6.751h-.91v-2.943h-3.975v2.943h-.91v-6.75h.91v2.943h3.974zm8.776-1.622v-1.324h.91v6.75h-.91v-1.323c-.635.991-1.564 1.485-2.787 1.485-.983 0-1.827-.34-2.524-1.025-.69-.684-1.035-1.522-1.035-2.51 0-.989.344-1.826 1.035-2.51a3.478 3.478 0 012.524-1.026c1.223 0 2.152.494 2.787 1.485v-.002zm-4.65 3.954c.525.513 1.168.77 1.932.77s1.407-.257 1.93-.77a2.614 2.614 0 00.788-1.903c0-.74-.263-1.377-.787-1.89-.524-.523-1.17-.782-1.931-.782-.762 0-1.407.261-1.931.782a2.543 2.543 0 00-.787 1.89c0 .745.263 1.372.787 1.903zm13.286-5.276v5.887h.967v2.674h-.91v-1.81h-5.63v1.81h-.91v-2.674h.84c.47-.613.704-1.462.704-2.551v-3.334h4.939v-.002zm-4.538 5.887h3.628v-5.023h-3.119v2.47c0 1.044-.169 1.895-.51 2.551v.002zm9.794-6.05c1.032 0 1.854.355 2.47 1.066.634.703.952 1.534.952 2.498 0 .045-.009.184-.027.419h-6.056c.092.676.386 1.215.883 1.62.497.404 1.117.606 1.862.606 1.048 0 1.789-.382 2.22-1.148l.8.46a3.14 3.14 0 01-1.248 1.14 3.83 3.83 0 01-1.787.412c-1.085 0-1.968-.333-2.649-.999-.68-.665-1.02-1.511-1.02-2.538 0-1.028.335-1.86 1.008-2.525.672-.674 1.536-1.013 2.592-1.013v.002zm0 .864c-.718 0-1.317.206-1.8.62-.481.416-.77.959-.861 1.635h5.145c-.102-.72-.382-1.273-.84-1.66a2.5 2.5 0 00-1.644-.595zm9.425 2.539l3.091 3.511H82.5l-2.814-3.254v3.254h-.91v-3.254l-2.814 3.254h-1.104l3.091-3.511-2.951-3.24h1.104l2.676 2.997V89.88h.91v2.997l2.676-2.997h1.105l-2.952 3.24h-.004zm9.217-.296V89.88h.91v6.751h-.91v-2.943h-3.975v2.943h-.91v-6.75h.91v2.943h3.974zm8.623 2.956c-.707.675-1.563 1.012-2.565 1.012s-1.881-.337-2.58-1.013c-.7-.684-1.048-1.525-1.048-2.524 0-1 .348-1.837 1.048-2.51.699-.685 1.559-1.026 2.58-1.026 1.02 0 1.866.343 2.565 1.025.708.674 1.063 1.512 1.063 2.51 0 1-.355 1.833-1.063 2.525zm-4.498-.622c.524.513 1.167.77 1.93.77.765 0 1.408-.257 1.932-.77a2.615 2.615 0 00.787-1.903c0-.74-.263-1.377-.787-1.89-.524-.523-1.17-.782-1.931-.782-.762 0-1.407.261-1.931.782a2.543 2.543 0 00-.787 1.89c0 .745.263 1.372.787 1.903zm10.293 1.634c-1.04 0-1.904-.337-2.595-1.013-.689-.692-1.035-1.534-1.035-2.524 0-.991.344-1.837 1.035-2.51.691-.685 1.555-1.026 2.595-1.026.68 0 1.292.16 1.835.48.542.319.937.75 1.185 1.289l-.745.419a2.106 2.106 0 00-.889-.965 2.7 2.7 0 00-1.386-.357c-.764 0-1.407.262-1.931.782a2.543 2.543 0 00-.787 1.89c0 .745.263 1.372.787 1.903.524.513 1.167.77 1.931.77.505 0 .962-.116 1.373-.35.409-.236.729-.558.958-.973l.758.433a3.16 3.16 0 01-1.254 1.283 3.642 3.642 0 01-1.835.471v-.002zm3.434-6.912h5.795v.864h-2.443v5.887h-.91v-5.887h-2.442v-.864zm7.809 2.564h1.891c.635 0 1.177.198 1.628.594.451.386.677.886.677 1.5 0 .612-.226 1.125-.677 1.51-.432.387-.975.58-1.628.58h-2.801v-6.75h.91v2.566zm0 3.32h1.891c.395 0 .726-.114.994-.342.267-.23.4-.525.4-.885s-.133-.653-.4-.884c-.268-.229-.599-.343-.994-.343h-1.891v2.457-.002zm-68.295 11.257c.8.297 1.2.838 1.2 1.62 0 .568-.225 1.044-.676 1.432-.432.386-1.067.58-1.904.58-1.398 0-2.309-.539-2.732-1.62l.772-.445c.294.801.948 1.201 1.958 1.201.524 0 .933-.11 1.227-.331.295-.22.443-.511.443-.87a.944.944 0 00-.359-.776c-.24-.194-.562-.29-.966-.29H45.05v-.864h.73c.395 0 .706-.096.932-.29.225-.194.338-.462.338-.803 0-.325-.136-.592-.407-.803-.271-.21-.628-.316-1.069-.316-.856 0-1.43.337-1.724 1.013l-.758-.431c.46-.962 1.288-1.444 2.484-1.444.735 0 1.315.188 1.74.568.431.369.648.823.648 1.364 0 .692-.29 1.197-.868 1.511v-.006zm8.514-1.959v-1.323h.91v6.751h-.91v-1.324c-.635.991-1.564 1.485-2.788 1.485-.983 0-1.826-.341-2.523-1.025-.691-.685-1.036-1.522-1.036-2.511 0-.988.345-1.826 1.036-2.51a3.479 3.479 0 012.523-1.025c1.224 0 2.153.494 2.787 1.485v-.003zm-4.65 3.955c.524.513 1.17.77 1.931.77.762 0 1.407-.257 1.931-.77a2.614 2.614 0 00.787-1.904c0-.739-.263-1.376-.787-1.889-.524-.523-1.169-.782-1.93-.782-.763 0-1.408.261-1.932.782a2.544 2.544 0 00-.787 1.889c0 .746.263 1.373.787 1.904zm10.555 1.634c-.986 0-1.812-.319-2.484-.958-.662-.647-.994-1.485-.994-2.51 0-1.152.175-2.035.524-2.645.349-.621 1.058-1.183 2.125-1.687.34-.154.607-.27.8-.352.321-.126.574-.235.757-.325.8-.359 1.205-.804 1.215-1.335l.718.404a2.048 2.048 0 01-.221.607 2.464 2.464 0 01-.353.472 2.512 2.512 0 01-.53.377c-.157.09-.345.188-.566.297l-.69.283-.65.27c-.634.27-1.106.552-1.415.844-.31.292-.526.672-.656 1.141.295-.386.68-.682 1.159-.884a3.69 3.69 0 011.449-.304c.92 0 1.678.296 2.277.89.608.586.91 1.336.91 2.255 0 .919-.321 1.665-.966 2.267-.635.595-1.44.891-2.416.891l.007.002zm-1.794-1.552c.479.441 1.076.661 1.794.661s1.306-.21 1.766-.635c.47-.433.703-.976.703-1.634 0-.657-.221-1.211-.662-1.634-.432-.433-1.012-.647-1.738-.647a2.88 2.88 0 00-1.781.606c-.534.386-.8.917-.8 1.593 0 .677.24 1.246.718 1.688v.002zm12.334.541c-.708.676-1.564 1.013-2.566 1.013-1.002 0-1.88-.337-2.58-1.013-.7-.684-1.048-1.526-1.048-2.525 0-.999.349-1.836 1.048-2.51.7-.684 1.56-1.025 2.58-1.025 1.021 0 1.867.343 2.566 1.025.708.674 1.062 1.511 1.062 2.51 0 .999-.354 1.832-1.062 2.525zm-4.499-.621c.524.513 1.17.77 1.931.77.762 0 1.407-.257 1.931-.77a2.614 2.614 0 00.787-1.904c0-.739-.263-1.376-.787-1.889-.524-.523-1.169-.782-1.93-.782-.763 0-1.408.261-1.932.782a2.544 2.544 0 00-.787 1.889c0 .746.263 1.373.787 1.904zm5.974-5.28h5.796v.864h-2.443v5.887h-.91v-5.887h-2.442v-.864zm12.557 1.323v-1.323h.91v6.751h-.91v-1.324c-.635.991-1.564 1.485-2.787 1.485-.985 0-1.827-.341-2.526-1.025-.689-.685-1.035-1.522-1.035-2.511 0-.988.344-1.826 1.035-2.51.7-.684 1.54-1.025 2.526-1.025 1.223 0 2.152.494 2.787 1.485v-.003zm-4.65 3.955c.525.513 1.17.77 1.932.77s1.407-.257 1.93-.77a2.614 2.614 0 00.788-1.904c0-.739-.263-1.376-.787-1.889-.524-.523-1.17-.782-1.931-.782-.762 0-1.407.261-1.931.782a2.544 2.544 0 00-.787 1.889c0 .746.263 1.373.787 1.904zm-35.445 8.421c1.04 0 1.877.337 2.511 1.013.635.666.952 1.508.952 2.525s-.321 1.873-.966 2.539c-.635.666-1.476.999-2.526.999-.735 0-1.378-.16-1.925-.48a2.84 2.84 0 01-1.194-1.304l.787-.445c.165.423.451.756.856.999.405.243.898.366 1.476.366.68 0 1.252-.207 1.718-.621.465-.415.743-.954.835-1.62H45.08v-.864h3.436c-.084-.666-.355-1.205-.814-1.62-.46-.414-1.032-.621-1.71-.621-.524 0-.99.121-1.392.366a2.243 2.243 0 00-.898.984l-.8-.445a3.05 3.05 0 011.234-1.295c.547-.314 1.167-.472 1.856-.472v-.004zm8.195 7.074c-1.04 0-1.903-.337-2.594-1.014-.69-.692-1.036-1.533-1.036-2.524 0-.991.345-1.836 1.036-2.51.69-.685 1.555-1.026 2.594-1.026.68 0 1.293.16 1.835.48.543.319.938.75 1.186 1.289l-.745.419a2.102 2.102 0 00-.89-.964 2.7 2.7 0 00-1.386-.358c-.764 0-1.407.262-1.93.783a2.541 2.541 0 00-.788 1.889c0 .745.264 1.373.787 1.904.524.512 1.167.77 1.931.77a2.71 2.71 0 001.374-.352 2.49 2.49 0 00.958-.972l.758.433a3.165 3.165 0 01-1.255 1.283 3.647 3.647 0 01-1.835.472v-.002zm3.436-6.912h5.795v.864h-2.442v5.886h-.91v-5.886h-2.443v-.864zm9.81-.162c1.031 0 1.854.356 2.47 1.067.634.702.952 1.533.952 2.498 0 .045-.009.183-.028.418h-6.055c.091.676.386 1.216.883 1.62.496.404 1.117.607 1.862.607 1.048 0 1.789-.382 2.22-1.148l.8.459a3.14 3.14 0 01-1.248 1.14 3.827 3.827 0 01-1.787.413c-1.085 0-1.968-.333-2.649-.999-.68-.666-1.02-1.512-1.02-2.539 0-1.027.335-1.859 1.008-2.525.672-.674 1.536-1.013 2.592-1.013v.002zm0 .864c-.718 0-1.317.207-1.8.621-.481.415-.77.958-.861 1.634h5.145c-.102-.719-.382-1.272-.84-1.66a2.497 2.497 0 00-1.644-.595zm3.766-.702h5.795v.864H74.55v5.886h-.91v-5.886h-2.442v-.864zm7.809 5.198l4.113-5.198h.772v6.75h-.91v-5.198l-4.112 5.198h-.773v-6.75h.91v5.198zm8.692-1.959l3.697 3.511h-1.215l-3.448-3.254v3.254h-.91v-6.75h.91v2.984l3.284-2.984h1.242l-3.56 3.239zm10.183-1.916V117.6h.91v6.75h-.91v-1.323c-.634.99-1.563 1.485-2.787 1.485-.983 0-1.826-.341-2.523-1.026-.691-.684-1.036-1.521-1.036-2.51 0-.989.345-1.826 1.036-2.51a3.48 3.48 0 012.523-1.026c1.224 0 2.153.495 2.787 1.485v-.002zm-4.649 3.955c.524.512 1.167.77 1.931.77s1.407-.258 1.931-.77a2.616 2.616 0 00.787-1.904c0-.739-.263-1.377-.787-1.889-.524-.523-1.169-.783-1.93-.783-.763 0-1.408.262-1.932.783a2.542 2.542 0 00-.787 1.889c0 .746.263 1.373.787 1.904z" fill="#17161B"/><path fill-rule="evenodd" clip-rule="evenodd" d="M29.607 87.507c-1.503 0-2.734.486-3.697 1.47-.912.946-1.367 2.11-1.367 3.501s.455 2.556 1.367 3.506c.948.99 2.182 1.484 3.697 1.484 1.516 0 2.747-.494 3.7-1.484.907-.95 1.365-2.115 1.365-3.506 0-1.39-.458-2.555-1.366-3.5-.952-.983-2.187-1.471-3.699-1.471zm1.545 6.57c-.367.487-.883.728-1.545.728-.661 0-1.173-.24-1.542-.727-.332-.441-.497-.977-.497-1.602 0-.625.165-1.152.497-1.583.37-.486.883-.727 1.542-.727.66 0 1.178.243 1.545.727.33.431.497.96.497 1.583s-.167 1.16-.497 1.602zm-27.273-2.26c-.013.927.23 1.852.68 2.739.078.153-.12.296-.244.175-1.07-1.06-1.689-2.29-1.7-3.594v-.094c.051-3.977 5.758-7.131 12.737-7.041 4.375.061 8.21 1.373 10.454 3.33-2.265-1.561-5.61-2.574-9.367-2.623-6.884-.092-12.506 3.09-12.56 7.106m20.568 2.9c.242.26.365.54.365.842 0 .618-.442 1.109-1.327 1.472a5.8 5.8 0 01-2.236.435c-1.518 0-2.75-.494-3.697-1.485-.912-.95-1.367-2.114-1.367-3.505 0-1.39.461-2.565 1.396-3.527.93-.96 2.15-1.442 3.668-1.442.873 0 1.628.116 2.252.35.873.314 1.31.804 1.31 1.47 0 .339-.116.637-.347.892-.23.256-.526.388-.88.388-.248 0-.598-.075-1.055-.222-.462-.145-.827-.219-1.094-.219-.718 0-1.274.231-1.67.695-.374.42-.56.956-.56 1.615 0 .623.17 1.156.501 1.583.372.497.887.75 1.553.75.299 0 .7-.076 1.211-.239.512-.157.887-.233 1.117-.233.328-.004.618.127.862.38m-8.886-1.593c.236-.176.354-.49.354-.948 0-1.268-.465-2.367-1.396-3.29-.933-.922-2.09-1.381-3.478-1.381-1.488 0-2.737.484-3.74 1.462-1.009.972-1.514 2.139-1.514 3.507 0 1.44.482 2.627 1.455 3.573.964.945 2.231 1.417 3.8 1.417.972 0 1.934-.153 2.871-.47 1.236-.42 1.85-1.005 1.85-1.754 0-.325-.125-.605-.367-.84a1.248 1.248 0 00-.887-.349c-.19 0-.629.147-1.32.44-.687.293-1.273.44-1.76.44-.626 0-1.164-.116-1.594-.337-.545-.28-.812-.678-.812-1.207h5.431c.501.004.87-.088 1.11-.263m-6.54-1.628h3.87c-.01-.417-.225-.795-.63-1.134-.41-.343-.843-.51-1.304-.51-.462 0-.912.167-1.32.51-.41.34-.615.717-.615 1.134z" fill="#17161B"/></svg>