<svg width="121" height="132" fill="none" xmlns="http://www.w3.org/2000/svg"><g clip-path="url(#clip0_353_1400)" fill="#fff"><path d="M42.508 30.616h9.384c2.49 0 4.608.113 6.357.339 1.747.227 3.36.755 4.835 1.587 1.978 1.136 3.494 2.66 4.546 4.567 1.055 1.907 1.583 4.025 1.583 6.35 0 2.108-.518 4.059-1.555 5.85a11.914 11.914 0 01-4.229 4.3 11.672 11.672 0 01-5.837 1.693L68.68 70.007h-4.892l-13.38-17.854h1.172c1.916 0 3.545-.063 4.886-.19 1.34-.126 2.572-.418 3.69-.877 1.614-.745 2.869-1.823 3.768-3.227.896-1.406 1.347-2.993 1.347-4.763 0-1.37-.329-2.692-.99-3.97-.658-1.274-1.553-2.299-2.681-3.071-1.154-.832-2.408-1.354-3.76-1.562-1.353-.208-3.066-.312-5.14-.312h-6.247v35.826H42.51V30.616h-.002zm38.137 3.565h-9.057v-3.565h21.954v3.565h-8.955v35.826h-3.942V34.18zm18.818-3.565H121v3.565h-17.595v14.185h17.008v3.566h-17.008v14.51H121v3.565H99.463V30.616zM21.843 53.22H11.516l7.679-18.077 7.56 18.077 1.55 3.564 5.7 13.223h4.266l-16.89-39.391h-4.373L0 70.006h4.269l5.7-13.222h13.629l-1.755-3.564zM16.717 0h2.374v21.58h9.832v2.149H16.717V0zM49.02 23.726h-2.28V20.42a6.599 6.599 0 01-1.716 2.041 7.53 7.53 0 01-2.387 1.259 8.883 8.883 0 01-2.71.423c-1.367 0-2.725-.31-4.074-.928-1.35-.619-2.568-1.552-3.66-2.796-.403-.44-.792-1.18-1.169-2.222-.377-1.044-.564-2.166-.564-3.366 0-1.065.21-2.134.631-3.206.421-1.071.823-1.778 1.204-2.124 2.31-2.483 4.833-3.723 7.572-3.723 1.448 0 2.797.32 4.047.96 1.25.64 2.194 1.561 2.825 2.763v-3.34h2.282v17.565zm-16.186-8.7c0 1.245.329 2.392.983 3.444a7.04 7.04 0 002.623 2.484 7.095 7.095 0 003.488.905c1.233 0 2.32-.311 3.368-.932a7.087 7.087 0 002.509-2.5 6.453 6.453 0 00.936-3.37 7.117 7.117 0 00-.9-3.516 6.664 6.664 0 00-2.484-2.551 6.755 6.755 0 00-3.488-.933c-1.27 0-2.435.31-3.511.929a7 7 0 00-2.568 2.536 6.762 6.762 0 00-.951 3.505M53.065 0h2.376v9.436c.547-1.16 1.448-2.06 2.696-2.7a8.547 8.547 0 013.951-.96c1.678 0 3.25.396 4.715 1.191a9.16 9.16 0 013.492 3.29c.861 1.398 1.293 2.937 1.293 4.614a9 9 0 01-.632 3.343c-.42 1.063-.905 1.896-1.454 2.496-1.14 1.29-2.278 2.185-3.414 2.684-1.137.499-2.396.75-3.775.75-1.378 0-2.694-.302-4.022-.902-1.328-.6-2.32-1.446-2.978-2.532v3.016h-2.25V0h.002zm4.077 10.175c-1.238 1.244-1.859 2.882-1.859 4.915 0 1.265.316 2.416.945 3.456a6.639 6.639 0 002.564 2.438 7.272 7.272 0 003.523.877c1.27 0 2.398-.311 3.461-.932a6.841 6.841 0 002.517-2.528 6.806 6.806 0 00.92-3.469c0-.97-.183-1.884-.55-2.736a6.622 6.622 0 00-1.508-2.198 6.82 6.82 0 00-2.257-1.431 7.424 7.424 0 00-2.749-.51c-1.96 0-3.629.706-5.007 2.118zM48.823 98.51v-3.034h.918v6.957h-.918V99.4h-4.008v3.033h-.917v-6.957h.917v3.033h4.008zm8.849-1.672v-1.364h.918v6.957h-.918v-1.364c-.64 1.021-1.576 1.53-2.81 1.53a3.466 3.466 0 01-2.545-1.057c-.697-.705-1.044-1.568-1.044-2.587 0-1.018.347-1.881 1.044-2.587a3.468 3.468 0 012.545-1.056c1.233 0 2.17.51 2.81 1.53v-.002zm-4.688 4.075c.529.528 1.177.794 1.947.794s1.42-.266 1.948-.794c.528-.547.793-1.2.793-1.962s-.265-1.418-.793-1.947c-.529-.539-1.18-.806-1.947-.806-.769 0-1.42.27-1.948.806-.528.529-.793 1.179-.793 1.947 0 .769.265 1.415.793 1.962zm13.396-5.437v6.066h.975v2.756h-.918v-1.865H60.76v1.865h-.918v-2.756h.849c.473-.631.709-1.507.709-2.629v-3.435h4.98v-.002zm-4.576 6.066h3.658v-5.176h-3.144v2.545c0 1.076-.17 1.954-.514 2.629v.002zm9.876-6.234c1.04 0 1.87.366 2.49 1.098.64.725.96 1.581.96 2.575 0 .046-.008.19-.027.431h-6.106c.092.697.389 1.253.89 1.67.5.416 1.126.625 1.877.625 1.057 0 1.804-.394 2.24-1.183l.806.473a3.195 3.195 0 01-1.258 1.175 3.796 3.796 0 01-1.802.425c-1.095 0-1.985-.343-2.671-1.029-.687-.686-1.03-1.558-1.03-2.617 0-1.058.34-1.915 1.017-2.601.678-.695 1.55-1.044 2.614-1.044v.002zm0 .89c-.724 0-1.328.213-1.814.64-.486.427-.777.987-.87 1.684h5.189c-.103-.741-.385-1.311-.848-1.711a2.488 2.488 0 00-1.657-.613zm9.504 2.616l3.117 3.619h-1.113L80.35 99.08v3.353h-.917V99.08l-2.838 3.353h-1.113l3.117-3.619-2.976-3.338h1.113l2.699 3.088v-3.088h.917v3.088l2.699-3.088h1.113l-2.976 3.338h-.004zm9.293-.304v-3.034h.918v6.957h-.918V99.4h-4.008v3.033h-.917v-6.957h.917v3.033h4.008zm8.695 3.045c-.713.697-1.576 1.044-2.587 1.044-1.01 0-1.896-.347-2.601-1.044-.706-.705-1.057-1.572-1.057-2.602 0-1.029.351-1.892 1.057-2.587.705-.705 1.572-1.056 2.601-1.056 1.03 0 1.882.353 2.587 1.056.714.695 1.072 1.558 1.072 2.587 0 1.03-.358 1.888-1.072 2.602zm-4.536-.64c.529.528 1.177.794 1.947.794s1.419-.266 1.947-.794c.529-.547.794-1.2.794-1.962s-.265-1.418-.794-1.947c-.528-.538-1.178-.806-1.947-.806-.768 0-1.418.27-1.947.806-.528.529-.793 1.18-.793 1.947 0 .769.265 1.415.793 1.962zm10.379 1.684c-1.048 0-1.919-.347-2.616-1.044-.695-.714-1.044-1.58-1.044-2.602 0-1.02.347-1.892 1.044-2.587.697-.705 1.568-1.056 2.616-1.056a3.51 3.51 0 011.851.495 2.92 2.92 0 011.195 1.328l-.751.431a2.149 2.149 0 00-.897-.993 2.676 2.676 0 00-1.398-.369c-.77 0-1.418.27-1.947.806-.528.529-.793 1.18-.793 1.948s.265 1.414.793 1.961c.529.529 1.177.794 1.947.794.51 0 .971-.12 1.385-.362.413-.242.735-.575.967-1.002l.764.446c-.289.556-.71.998-1.265 1.322a3.614 3.614 0 01-1.851.486v-.002zm3.463-7.123h5.843v.89h-2.463v6.067h-.917v-6.067h-2.463v-.89zm7.874 2.642h1.907c.64 0 1.188.204 1.642.612.455.398.682.914.682 1.545 0 .632-.227 1.16-.682 1.558-.435.398-.983.598-1.642.598h-2.824v-6.957h.917v2.644zm0 3.422h1.907c.398 0 .733-.117 1.002-.353.27-.236.405-.541.405-.912 0-.37-.135-.673-.405-.911-.269-.236-.604-.354-1.002-.354h-1.907v2.533-.003zm-68.863 11.6c.806.306 1.21.863 1.21 1.67 0 .585-.227 1.075-.682 1.475-.436.398-1.076.598-1.92.598-1.41 0-2.328-.556-2.755-1.669l.779-.459c.297.825.955 1.238 1.974 1.238.529 0 .941-.114 1.238-.341.297-.228.446-.527.446-.897 0-.335-.12-.6-.362-.8-.242-.2-.566-.299-.974-.299h-1.017v-.89h.736c.398 0 .712-.099.94-.299.227-.2.34-.476.34-.827a1.01 1.01 0 00-.41-.828c-.274-.216-.634-.326-1.078-.326-.863 0-1.442.347-1.739 1.044l-.764-.444c.463-.991 1.3-1.488 2.505-1.488.741 0 1.326.194 1.754.585.435.381.654.848.654 1.406 0 .714-.292 1.234-.875 1.558v-.007zm8.583-2.018v-1.364h.918v6.957h-.918v-1.364c-.64 1.021-1.576 1.53-2.81 1.53a3.466 3.466 0 01-2.544-1.057c-.697-.705-1.045-1.568-1.045-2.587 0-1.018.348-1.881 1.044-2.587a3.468 3.468 0 012.545-1.056c1.234 0 2.17.509 2.81 1.53v-.002zm-4.687 4.075c.528.528 1.178.794 1.947.794.768 0 1.419-.266 1.947-.794.528-.547.793-1.2.793-1.962s-.265-1.418-.793-1.947c-.529-.539-1.179-.806-1.947-.806-.769 0-1.419.269-1.947.806-.529.529-.794 1.179-.794 1.947 0 .769.265 1.415.794 1.962zm10.642 1.684c-.993 0-1.827-.328-2.505-.987-.667-.667-1.002-1.53-1.002-2.587 0-1.187.177-2.097.529-2.726.351-.64 1.067-1.219 2.142-1.739.344-.157.613-.277.807-.362.324-.13.579-.242.764-.334.806-.371 1.214-.83 1.225-1.377l.724.417a2.14 2.14 0 01-.223.625c-.12.204-.238.366-.356.486s-.295.251-.535.39c-.157.092-.347.193-.57.305l-.697.292-.654.278c-.64.278-1.116.569-1.428.87-.311.301-.53.692-.66 1.176a2.823 2.823 0 011.168-.911 3.64 3.64 0 011.46-.314c.929 0 1.693.305 2.297.918.613.604.918 1.376.918 2.324 0 .947-.324 1.715-.975 2.336-.64.613-1.452.918-2.435.918l.006.002zm-1.808-1.6c.482.455 1.084.682 1.808.682s1.318-.217 1.78-.654c.474-.447.71-1.007.71-1.684 0-.678-.223-1.249-.667-1.684-.436-.446-1.02-.667-1.753-.667-.66 0-1.257.208-1.796.625-.539.398-.806.945-.806 1.641 0 .697.242 1.284.724 1.739v.002zm12.436.558c-.714.697-1.577 1.044-2.587 1.044-1.01 0-1.897-.347-2.602-1.044-.705-.705-1.056-1.572-1.056-2.602 0-1.029.351-1.892 1.056-2.587.705-.705 1.573-1.056 2.602-1.056 1.03 0 1.882.353 2.587 1.056.713.695 1.071 1.558 1.071 2.587 0 1.03-.358 1.888-1.071 2.602zm-4.536-.64c.528.528 1.178.794 1.947.794.768 0 1.418-.266 1.947-.794.528-.547.793-1.2.793-1.962s-.265-1.418-.793-1.947c-.529-.539-1.179-.806-1.947-.806-.769 0-1.419.27-1.947.806-.529.529-.794 1.179-.794 1.947 0 .769.265 1.415.794 1.962zm6.024-5.441h5.843v.89h-2.463v6.066h-.917v-6.066h-2.463v-.89zm12.661 1.364v-1.364h.918v6.957h-.918v-1.364c-.64 1.021-1.577 1.53-2.81 1.53a3.47 3.47 0 01-2.547-1.057c-.695-.705-1.044-1.568-1.044-2.587 0-1.018.347-1.881 1.044-2.587a3.47 3.47 0 012.547-1.056c1.233 0 2.17.509 2.81 1.53v-.002zm-4.688 4.075c.529.528 1.179.794 1.947.794.769 0 1.419-.266 1.947-.794.529-.547.794-1.2.794-1.962s-.265-1.418-.794-1.947c-.528-.539-1.178-.806-1.947-.806-.768 0-1.418.269-1.947.806-.528.529-.793 1.179-.793 1.947 0 .769.265 1.415.793 1.962zm-35.741 8.678c1.048 0 1.892.348 2.532 1.045.64.686.96 1.553.96 2.601s-.324 1.93-.974 2.617c-.64.686-1.489 1.029-2.547 1.029-.741 0-1.39-.164-1.941-.495a2.903 2.903 0 01-1.204-1.343l.794-.459c.166.436.454.779.863 1.03.408.25.905.376 1.488.376.686 0 1.263-.212 1.732-.639.47-.428.75-.983.842-1.67h-3.465v-.89h3.465c-.084-.686-.358-1.242-.821-1.669-.463-.427-1.04-.64-1.724-.64-.528 0-.998.124-1.404.377a2.29 2.29 0 00-.905 1.014l-.806-.459a3.105 3.105 0 011.244-1.334c.551-.324 1.177-.486 1.871-.486v-.005zm8.264 7.29c-1.048 0-1.92-.348-2.617-1.044-.694-.714-1.044-1.581-1.044-2.602s.348-1.892 1.044-2.587c.697-.705 1.569-1.057 2.617-1.057.686 0 1.303.165 1.85.495.547.328.945.773 1.196 1.328l-.752.432a2.152 2.152 0 00-.896-.994 2.68 2.68 0 00-1.398-.368c-.77 0-1.419.269-1.947.806-.528.528-.794 1.179-.794 1.947s.266 1.415.794 1.962c.528.528 1.176.793 1.947.793.51 0 .972-.119 1.385-.362.413-.242.735-.574.966-1.001l.764.446c-.288.555-.71.997-1.265 1.322a3.611 3.611 0 01-1.85.486v-.002zm3.465-7.123h5.843v.89h-2.463v6.066h-.918v-6.066h-2.462v-.89zm9.891-.167c1.04 0 1.869.367 2.49 1.099.64.724.96 1.581.96 2.574 0 .047-.009.19-.028.432h-6.106c.092.697.39 1.252.89 1.669.501.417 1.126.625 1.878.625 1.056 0 1.804-.393 2.24-1.183l.805.474a3.192 3.192 0 01-1.258 1.174 3.784 3.784 0 01-1.802.426c-1.095 0-1.985-.343-2.671-1.03-.686-.686-1.03-1.557-1.03-2.616 0-1.059.34-1.915 1.017-2.602.678-.694 1.55-1.044 2.615-1.044v.002zm0 .891c-.725 0-1.329.212-1.815.64-.486.427-.777.987-.87 1.684h5.19c-.104-.741-.386-1.312-.849-1.712a2.49 2.49 0 00-1.656-.612zm3.797-.724h5.843v.89h-2.463v6.066h-.918v-6.066h-2.462v-.89zm7.874 5.357l4.147-5.357h.779v6.956h-.918v-5.357l-4.147 5.357h-.779v-6.956h.918v5.357zm8.764-2.019l3.729 3.618h-1.225l-3.478-3.353v3.353h-.917v-6.956h.917v3.075l3.311-3.075h1.253l-3.59 3.338zm10.269-1.974v-1.364h.917v6.956H98.7v-1.364c-.64 1.021-1.577 1.531-2.81 1.531a3.466 3.466 0 01-2.545-1.057c-.697-.705-1.044-1.568-1.044-2.587 0-1.019.347-1.882 1.044-2.587a3.47 3.47 0 012.545-1.057c1.233 0 2.17.51 2.81 1.531v-.002zm-4.688 4.075c.528.528 1.177.793 1.947.793s1.419-.265 1.947-.793c.528-.548.794-1.2.794-1.962s-.266-1.419-.794-1.947c-.528-.539-1.179-.806-1.947-.806s-1.419.269-1.947.806c-.528.528-.793 1.179-.793 1.947s.265 1.414.793 1.962z"/><path fill-rule="evenodd" clip-rule="evenodd" d="M29.854 93.03c-1.516 0-2.758.501-3.728 1.516-.92.974-1.379 2.174-1.379 3.607 0 1.434.46 2.634 1.379 3.613.956 1.02 2.2 1.53 3.728 1.53s2.77-.51 3.73-1.53c.915-.979 1.376-2.18 1.376-3.613 0-1.433-.46-2.633-1.376-3.607-.96-1.013-2.206-1.516-3.73-1.516zm1.557 6.772c-.37.501-.89.749-1.557.749-.668 0-1.183-.246-1.556-.75-.334-.454-.5-1.005-.5-1.65 0-.644.166-1.187.5-1.63.373-.502.89-.75 1.556-.75.665 0 1.187.25 1.557.75.333.443.501.988.501 1.63 0 .642-.168 1.196-.5 1.65zm-27.5-2.33c-.013.955.231 1.909.686 2.822.078.158-.122.305-.246.181-1.08-1.092-1.703-2.36-1.714-3.704v-.097c.051-4.099 5.806-7.348 12.842-7.256 4.412.063 8.279 1.415 10.542 3.431-2.284-1.608-5.656-2.652-9.445-2.703-6.942-.094-12.61 3.185-12.665 7.323m20.74 2.989c.244.268.368.556.368.868 0 .637-.446 1.143-1.339 1.517a5.74 5.74 0 01-2.254.449c-1.53 0-2.772-.51-3.728-1.531-.92-.978-1.379-2.178-1.379-3.612 0-1.433.466-2.643 1.409-3.635.936-.99 2.167-1.486 3.698-1.486.88 0 1.642.12 2.27.36.88.324 1.32.83 1.32 1.516 0 .349-.115.656-.349.92-.231.263-.53.4-.886.4-.25 0-.604-.079-1.065-.23-.465-.15-.834-.225-1.103-.225-.724 0-1.284.237-1.684.715-.377.434-.564.985-.564 1.665 0 .642.17 1.192.505 1.632.375.511.895.772 1.566.772.301 0 .705-.078 1.221-.246.516-.162.895-.24 1.126-.24.33-.004.623.13.87.391m-8.961-1.641c.238-.181.358-.506.358-.977 0-1.307-.47-2.44-1.408-3.391-.941-.95-2.107-1.423-3.507-1.423-1.5 0-2.76.499-3.772 1.507-1.017 1.002-1.526 2.204-1.526 3.614 0 1.484.486 2.707 1.467 3.682.972.974 2.25 1.46 3.83 1.46.982 0 1.952-.157 2.897-.484 1.246-.433 1.865-1.035 1.865-1.808 0-.334-.126-.623-.37-.865a1.241 1.241 0 00-.895-.36c-.191 0-.633.152-1.33.453-.693.303-1.284.454-1.775.454-.631 0-1.174-.12-1.608-.347-.55-.288-.819-.699-.819-1.244h5.477c.506.004.878-.09 1.12-.271m-6.594-1.678h3.902c-.01-.43-.227-.819-.636-1.168-.414-.354-.85-.526-1.315-.526-.465 0-.92.172-1.33.526-.415.35-.621.739-.621 1.168z"/></g><defs><clipPath id="clip0_353_1400"><path fill="#fff" d="M0 0h121v131.165H0z"/></clipPath></defs></svg>