<svg width="78" height="45" fill="none" xmlns="http://www.w3.org/2000/svg"><path d="M27.402 19.31h6.05c1.605 0 2.97.073 4.097.215a8.658 8.658 0 013.117 1c1.275.718 2.252 1.679 2.93 2.882.68 1.203 1.021 2.538 1.021 4.005 0 1.33-.334 2.56-1.003 3.69a7.595 7.595 0 01-2.726 2.712 7.646 7.646 0 01-3.762 1.068l7.146 9.275H41.12l-8.624-11.262h.756c1.234 0 2.285-.04 3.149-.12a8.429 8.429 0 002.378-.553c1.041-.47 1.85-1.15 2.43-2.035.577-.887.868-1.888.868-3.005 0-.864-.212-1.698-.638-2.503a5.232 5.232 0 00-1.729-1.938 5.613 5.613 0 00-2.423-.985c-.873-.131-1.977-.196-3.314-.196h-4.027v22.597h-2.541V19.31h-.002zm24.584 2.25h-5.838v-2.25H60.3v2.25h-5.772v22.597h-2.542V21.56zm12.131-2.25H78v2.25H66.658v8.947H77.62v2.249H66.658v9.151H78v2.25H64.117V19.31zM14.08 33.569H7.423l4.95-11.402 4.874 11.401.999 2.248 3.674 8.34h2.75L13.784 19.312h-2.82L0 44.157h2.752l3.674-8.34h8.786l-1.132-2.248zM10.776 0h1.53v13.611h6.339v1.356h-7.869V0zM31.6 14.966h-1.47V12.88a4.187 4.187 0 01-1.106 1.287 4.884 4.884 0 01-1.54.794 5.84 5.84 0 01-1.745.267 6.362 6.362 0 01-2.627-.585c-.87-.39-1.656-.979-2.36-1.763-.26-.278-.51-.745-.753-1.402a6.086 6.086 0 01-.364-2.123 5.4 5.4 0 01.407-2.022c.272-.676.531-1.122.777-1.34 1.488-1.566 3.115-2.348 4.88-2.348.934 0 1.803.201 2.61.605.805.404 1.413.985 1.82 1.743V3.886H31.6v11.08zM21.166 9.477c0 .785.212 1.508.634 2.172a4.498 4.498 0 001.69 1.567c.705.381 1.454.57 2.249.57.795 0 1.495-.196 2.17-.587a4.52 4.52 0 001.618-1.578c.403-.66.604-1.367.604-2.125 0-.798-.194-1.536-.58-2.217a4.248 4.248 0 00-1.602-1.61 4.427 4.427 0 00-2.248-.588 4.53 4.53 0 00-2.264.586 4.466 4.466 0 00-1.655 1.6 4.195 4.195 0 00-.613 2.21M34.207 0h1.532v5.952c.353-.732.933-1.3 1.738-1.704a5.607 5.607 0 012.547-.605 6.38 6.38 0 013.04.752 5.854 5.854 0 012.25 2.075c.555.881.833 1.852.833 2.91a5.57 5.57 0 01-.407 2.108c-.271.67-.583 1.196-.937 1.575-.734.814-1.468 1.378-2.201 1.693-.733.314-1.544.472-2.433.472-.889 0-1.737-.19-2.593-.568-.856-.378-1.495-.912-1.92-1.597v1.902h-1.45V0zm2.628 6.418c-.798.785-1.198 1.817-1.198 3.1 0 .798.203 1.524.61 2.18a4.242 4.242 0 001.652 1.537 4.77 4.77 0 002.271.554c.819 0 1.546-.197 2.231-.588a4.364 4.364 0 001.623-1.595c.396-.67.593-1.399.593-2.188a4.248 4.248 0 00-1.327-3.112 4.41 4.41 0 00-1.455-.902 4.88 4.88 0 00-1.772-.322c-1.263 0-2.34.445-3.228 1.336z" fill="#17161C"/></svg>