<svg width="179" height="56" fill="none" xmlns="http://www.w3.org/2000/svg"><g clip-path="url(#clip0_353_1276)" fill="#fff"><path d="M33.469 24.15h7.387c1.96 0 3.628.089 5.005.267 1.376.178 2.645.595 3.807 1.252 1.557.897 2.752 2.098 3.58 3.602.831 1.505 1.246 3.176 1.246 5.011a9.051 9.051 0 01-1.226 4.613 9.387 9.387 0 01-3.33 3.394 9.176 9.176 0 01-4.596 1.334l8.73 11.6h-3.853L39.686 41.14h.921c1.51 0 2.791-.05 3.847-.15a10.073 10.073 0 002.905-.693c1.271-.589 2.26-1.437 2.966-2.545.707-1.109 1.06-2.36 1.06-3.757 0-1.08-.258-2.123-.777-3.13-.52-1.004-1.224-1.813-2.112-2.422a6.748 6.748 0 00-2.96-1.232c-1.066-.164-2.416-.245-4.048-.245h-4.919v28.26h-3.104V24.15h.004zm30.024 2.814h-7.13v-2.812h17.285v2.812h-7.05v28.26h-3.105v-28.26zM78.31 24.15h16.957v2.814H81.414v11.188h13.391v2.814h-13.39V52.41h13.852v2.814H78.31V24.15zM17.198 41.982H9.067l6.045-14.259 5.952 14.26 1.22 2.81 4.488 10.432h3.361l-13.3-31.073h-3.442L0 55.225h3.361L7.85 44.794h10.73l-1.38-2.812zM13.162 0h1.87v17.021h7.74v1.697h-9.61V0zm25.434 18.716H36.8v-2.608a5.204 5.204 0 01-1.352 1.611 5.904 5.904 0 01-1.879.993 6.942 6.942 0 01-2.133.334c-1.078 0-2.147-.245-3.21-.731-1.061-.489-2.022-1.224-2.883-2.205-.316-.346-.623-.931-.92-1.754a7.789 7.789 0 01-.443-2.656c0-.84.165-1.684.495-2.529.331-.844.647-1.404.947-1.675 1.818-1.957 3.805-2.938 5.963-2.938 1.138 0 2.202.253 3.187.757.985.504 1.727 1.232 2.224 2.18V4.86h1.796v13.856h.004zm-12.743-6.864c0 .981.258 1.887.775 2.717a5.551 5.551 0 002.065 1.96 5.57 5.57 0 002.745.714c.97 0 1.826-.245 2.65-.736a5.604 5.604 0 001.976-1.971 5.1 5.1 0 00.738-2.66 5.6 5.6 0 00-.71-2.772 5.247 5.247 0 00-1.956-2.013 5.305 5.305 0 00-2.748-.736c-1 0-1.916.244-2.765.732a5.5 5.5 0 00-2.02 2.001c-.5.844-.75 1.766-.75 2.764zM41.78 0h1.87v7.445c.433-.916 1.14-1.626 2.124-2.13a6.722 6.722 0 013.11-.757 7.66 7.66 0 013.713.94 7.203 7.203 0 012.75 2.594 6.808 6.808 0 011.018 3.638c0 .92-.166 1.797-.496 2.636-.331.838-.712 1.495-1.144 1.97-.898 1.018-1.794 1.724-2.688 2.117-.896.394-1.887.591-2.973.591-1.085 0-2.121-.237-3.165-.712-1.046-.472-1.828-1.14-2.345-1.997v2.381h-1.77V0h-.004zm3.209 8.026c-.975.981-1.463 2.274-1.463 3.878a5.237 5.237 0 002.763 4.65 5.702 5.702 0 002.773.693c.999 0 1.887-.245 2.724-.736a5.403 5.403 0 001.981-1.993 5.38 5.38 0 00.725-2.737c0-.767-.144-1.487-.432-2.157a5.218 5.218 0 00-1.19-1.734 5.356 5.356 0 00-1.778-1.13 5.838 5.838 0 00-2.163-.4c-1.543 0-2.858.555-3.943 1.668m69.21 18.424v-2.745h.829v6.294h-.829v-2.745h-3.618v2.745h-.829v-6.294h.829v2.745h3.618zm7.991-1.512v-1.233h.829V30h-.829v-1.234c-.578.924-1.425 1.384-2.538 1.384a3.129 3.129 0 01-2.299-.957c-.628-.636-.944-1.418-.944-2.341 0-.924.314-1.703.944-2.341a3.136 3.136 0 012.299-.957c1.113 0 1.96.46 2.538 1.384v.002zm-4.233 3.689c.477.478 1.064.717 1.758.717.695 0 1.281-.239 1.759-.717a2.467 2.467 0 00.716-1.776 2.41 2.41 0 00-.716-1.762 2.37 2.37 0 00-1.759-.73 2.37 2.37 0 00-1.758.73c-.478.479-.717 1.066-.717 1.762s.239 1.28.717 1.776zm12.098-4.922v5.49h.88v2.49h-.829v-1.686h-5.125v1.687h-.829v-2.492h.766c.426-.571.641-1.364.641-2.379V23.71h4.498l-.002-.002zm-4.133 5.49h3.304v-4.683h-2.84v2.303c0 .973-.156 1.766-.464 2.38zm8.919-5.64c.938 0 1.688.332 2.25.994.578.655.866 1.432.866 2.33 0 .041-.007.172-.025.39h-5.516c.082.628.351 1.132.803 1.51.452.378 1.018.566 1.695.566.955 0 1.628-.357 2.023-1.07l.728.429a2.905 2.905 0 01-1.136 1.064 3.426 3.426 0 01-1.627.383c-.988 0-1.792-.31-2.411-.931-.62-.621-.93-1.41-.93-2.367 0-.957.306-1.732.918-2.353.612-.629 1.399-.943 2.362-.943v-.002zm0 .804c-.653 0-1.2.194-1.64.58-.44.385-.701.894-.785 1.522h4.685c-.093-.672-.347-1.188-.766-1.548a2.243 2.243 0 00-1.496-.554h.002zm8.581 2.368L146.234 30h-1.005l-2.563-3.033V30h-.829v-3.033L139.275 30h-1.005l2.815-3.273-2.688-3.021h1.004l2.438 2.794v-2.794h.829V26.5l2.437-2.794h1.005l-2.689 3.021h-.002zm8.392-.277v-2.745h.829v6.294h-.829v-2.745h-3.617v2.745h-.829v-6.294h.829v2.745h3.617zm7.853 2.756a3.229 3.229 0 01-2.336.945c-.912 0-1.714-.314-2.349-.945-.637-.637-.955-1.422-.955-2.353 0-.931.318-1.713.955-2.341.637-.637 1.419-.957 2.349-.957.929 0 1.699.318 2.336.957.646.628.967 1.41.967 2.34 0 .932-.321 1.71-.967 2.354zm-4.095-.58c.478.48 1.064.718 1.759.718.694 0 1.28-.239 1.758-.717a2.464 2.464 0 00.717-1.776c0-.69-.239-1.283-.717-1.762a2.37 2.37 0 00-1.758-.73 2.37 2.37 0 00-1.759.73c-.478.479-.716 1.066-.716 1.762s.238 1.28.716 1.776zm9.373 1.523c-.947 0-1.735-.314-2.363-.945-.627-.646-.943-1.43-.943-2.353 0-.924.314-1.712.943-2.341.628-.637 1.416-.957 2.363-.957.62 0 1.176.148 1.672.447.493.298.854.698 1.079 1.202l-.679.39a1.951 1.951 0 00-.811-.9 2.425 2.425 0 00-1.263-.334 2.37 2.37 0 00-1.759.73c-.477.478-.716 1.065-.716 1.761s.239 1.28.716 1.776c.478.478 1.064.718 1.759.718.46 0 .876-.11 1.249-.329.373-.217.663-.52.873-.905l.69.403c-.26.504-.641.902-1.142 1.196a3.267 3.267 0 01-1.672.441h.004zm3.126-6.444h5.278v.805h-2.225v5.49h-.829v-5.49h-2.224v-.805zm7.111 2.393h1.721c.578 0 1.072.184 1.482.553.411.362.616.827.616 1.398 0 .572-.205 1.05-.616 1.41-.392.362-.888.542-1.482.542h-2.55V23.71h.829v2.393-.002zm0 3.096h1.721c.359 0 .661-.107.904-.32a1.05 1.05 0 00.365-.825c0-.336-.122-.61-.365-.824-.243-.214-.545-.32-.904-.32h-1.721v2.291-.002zM112.99 39.69c.728.277 1.093.781 1.093 1.511 0 .528-.205.973-.615 1.335-.395.362-.971.542-1.735.542-1.273 0-2.102-.505-2.487-1.511l.703-.415c.268.747.862 1.12 1.784 1.12.478 0 .851-.102 1.119-.308a.976.976 0 00.403-.812.888.888 0 00-.328-.724c-.217-.18-.511-.271-.88-.271h-.918v-.805h.665c.359 0 .643-.09.849-.27.205-.18.308-.43.308-.75a.923.923 0 00-.371-.75c-.247-.197-.573-.296-.973-.296-.78 0-1.303.314-1.571.945l-.691-.403c.418-.898 1.172-1.347 2.262-1.347.669 0 1.198.176 1.582.528.393.344.591.767.591 1.271 0 .647-.265 1.116-.792 1.41h.002zm7.751-1.825v-1.234h.828v6.294h-.828v-1.234c-.579.924-1.425 1.385-2.539 1.385a3.13 3.13 0 01-2.299-.957c-.627-.637-.941-1.418-.941-2.342 0-.923.314-1.702.941-2.34.638-.638 1.403-.958 2.299-.958 1.114 0 1.96.46 2.539 1.384v.002zm-4.234 3.688c.478.479 1.064.718 1.759.718.694 0 1.28-.24 1.758-.718a2.463 2.463 0 00.717-1.776c0-.69-.239-1.283-.717-1.762a2.37 2.37 0 00-1.758-.73 2.37 2.37 0 00-1.759.73c-.478.479-.716 1.066-.716 1.762s.238 1.28.716 1.776zm9.612 1.522c-.896 0-1.65-.298-2.262-.893-.604-.605-.904-1.385-.904-2.342 0-1.073.16-1.896.478-2.467.317-.58.963-1.104 1.934-1.574.31-.143.552-.252.728-.329.292-.116.523-.217.691-.302.728-.336 1.097-.752 1.105-1.246l.653.378a1.9 1.9 0 01-.201.565 2.41 2.41 0 01-.32.441 2.189 2.189 0 01-.483.352 9.246 9.246 0 01-.515.277l-.628.265-.59.251c-.578.251-1.007.514-1.289.787-.28.273-.48.627-.598 1.064a2.55 2.55 0 011.056-.825 3.3 3.3 0 011.318-.282c.837 0 1.53.277 2.073.83.552.546.829 1.246.829 2.102 0 .856-.295 1.552-.881 2.114-.578.554-1.31.83-2.198.83l.004.005zm-1.635-1.447c.437.411.981.617 1.635.617.653 0 1.188-.198 1.608-.591.428-.404.642-.91.642-1.523 0-.613-.202-1.129-.602-1.522-.393-.404-.922-.605-1.583-.605-.594 0-1.135.187-1.621.565-.485.362-.728.856-.728 1.485 0 .629.217 1.163.653 1.574h-.004zm11.232.504a3.229 3.229 0 01-2.336.946c-.912 0-1.713-.315-2.349-.946-.637-.636-.955-1.421-.955-2.353 0-.931.318-1.712.955-2.341.636-.637 1.419-.957 2.349-.957.929 0 1.699.318 2.336.957.646.629.967 1.41.967 2.341 0 .932-.321 1.709-.967 2.353zm-4.095-.579c.478.479 1.064.718 1.759.718.694 0 1.281-.24 1.758-.718a2.464 2.464 0 00.717-1.776c0-.69-.239-1.283-.717-1.762a2.368 2.368 0 00-1.758-.73 2.37 2.37 0 00-1.759.73c-.477.479-.716 1.066-.716 1.762s.239 1.28.716 1.776zm5.441-4.922h5.278v.805h-2.224v5.49h-.829v-5.49h-2.225v-.805zm11.434 1.234v-1.234h.829v6.294h-.829v-1.234c-.579.924-1.425 1.385-2.538 1.385a3.132 3.132 0 01-2.3-.957c-.627-.637-.943-1.418-.943-2.342 0-.923.314-1.702.943-2.34a3.137 3.137 0 012.3-.958c1.113 0 1.959.46 2.538 1.384v.002zm-4.234 3.688c.478.479 1.064.718 1.759.718.694 0 1.281-.24 1.758-.718a2.463 2.463 0 00.717-1.776c0-.69-.239-1.283-.717-1.762a2.368 2.368 0 00-1.758-.73 2.37 2.37 0 00-1.759.73c-.477.479-.716 1.066-.716 1.762s.239 1.28.716 1.776zm-32.276 7.85c.947 0 1.709.315 2.287.944.578.62.866 1.405.866 2.353 0 .947-.294 1.746-.88 2.367-.578.62-1.344.931-2.299.931-.671 0-1.255-.148-1.753-.447a2.63 2.63 0 01-1.087-1.214l.716-.415c.15.393.411.706.78.931.369.225.817.34 1.344.34.62 0 1.141-.194 1.565-.58.422-.385.677-.89.76-1.51h-3.128v-.805h3.128c-.075-.62-.322-1.125-.742-1.51-.419-.386-.938-.58-1.557-.58-.478 0-.9.113-1.27.34a2.07 2.07 0 00-.817.92l-.728-.416a2.805 2.805 0 011.125-1.208c.497-.294 1.062-.44 1.69-.44zM119.448 56c-.948 0-1.735-.315-2.363-.945-.627-.647-.943-1.43-.943-2.353 0-.924.314-1.713.943-2.342.628-.636 1.415-.957 2.363-.957.62 0 1.176.149 1.671.447.494.299.855.698 1.08 1.203l-.679.389a1.952 1.952 0 00-.811-.9 2.425 2.425 0 00-1.263-.334 2.37 2.37 0 00-1.759.73c-.477.478-.716 1.066-.716 1.762s.239 1.279.716 1.775c.478.479 1.064.718 1.759.718.46 0 .878-.109 1.249-.328a2.29 2.29 0 00.872-.906l.691.404a2.92 2.92 0 01-1.142 1.196c-.504.293-1.06.44-1.672.44h.004zm3.128-6.447h5.277v.805h-2.224v5.49h-.829v-5.49h-2.224v-.804zm8.933-.15c.937 0 1.687.333 2.25.995.578.654.866 1.432.866 2.33a7.2 7.2 0 01-.026.389h-5.516c.083.629.351 1.133.803 1.51.452.378 1.019.566 1.696.566.955 0 1.628-.356 2.023-1.07l.728.43a2.901 2.901 0 01-1.137 1.063 3.42 3.42 0 01-1.626.384c-.989 0-1.792-.31-2.412-.931-.62-.621-.93-1.41-.93-2.367 0-.957.306-1.733.918-2.353.612-.63 1.4-.944 2.363-.944v-.002zm0 .805c-.654 0-1.2.194-1.64.58-.441.385-.703.893-.786 1.522h4.685c-.092-.672-.347-1.188-.765-1.548a2.245 2.245 0 00-1.496-.554h.002zm3.43-.655h5.277v.805h-2.224v5.49h-.829v-5.49h-2.224v-.804zm7.111 4.847l3.744-4.846h.704v6.293h-.829v-4.846l-3.744 4.846h-.704v-6.294h.829V54.4zm7.914-1.825l3.367 3.272h-1.105l-3.14-3.033v3.033h-.829v-6.294h.829v2.783l2.99-2.782h1.131l-3.241 3.02h-.002zm9.272-1.787v-1.234h.829v6.294h-.829v-1.234c-.578.923-1.425 1.384-2.538 1.384a3.129 3.129 0 01-2.299-.957c-.628-.637-.944-1.418-.944-2.341 0-.924.314-1.703.944-2.342a3.136 3.136 0 012.299-.957c1.113 0 1.96.461 2.538 1.384v.003zm-4.233 3.687c.477.479 1.063.718 1.758.718.695 0 1.281-.24 1.759-.718a2.467 2.467 0 00.716-1.775c0-.69-.239-1.284-.716-1.762a2.37 2.37 0 00-1.759-.73c-.695 0-1.281.243-1.758.73-.478.478-.717 1.066-.717 1.762s.239 1.279.717 1.775z"/><path fill-rule="evenodd" clip-rule="evenodd" d="M133.924 3.636c-1.486 0-2.705.495-3.657 1.49-.902.956-1.352 2.139-1.352 3.547 0 1.408.45 2.59 1.352 3.551.94 1.005 2.159 1.505 3.657 1.505 1.498 0 2.72-.5 3.662-1.505.898-.96 1.351-2.143 1.351-3.551 0-1.408-.453-2.589-1.351-3.548-.944-.996-2.166-1.489-3.662-1.489zm1.53 6.66c-.365.495-.874.738-1.53.738-.655 0-1.16-.244-1.527-.738-.33-.447-.492-.99-.492-1.621s.164-1.167.492-1.604c.365-.492.874-.738 1.527-.738.654 0 1.165.246 1.53.738.326.435.491.973.491 1.604 0 .63-.165 1.174-.491 1.621zm-26.991-2.292c-.012.94.227 1.879.673 2.777.077.154-.121.3-.241.178-1.06-1.074-1.672-2.322-1.684-3.643v-.095c.05-4.03 5.698-7.225 12.606-7.134 4.33.061 8.125 1.392 10.346 3.373-2.24-1.582-5.552-2.608-9.27-2.657-6.813-.093-12.379 3.132-12.432 7.201m20.356 2.94c.241.264.361.548.361.853 0 .627-.438 1.123-1.315 1.493a5.64 5.64 0 01-2.212.44c-1.502 0-2.72-.5-3.657-1.504-.904-.96-1.354-2.143-1.354-3.551 0-1.408.456-2.6 1.382-3.575.919-.973 2.127-1.462 3.629-1.462.864 0 1.611.117 2.23.354.865.319 1.297.817 1.297 1.49 0 .343-.115.644-.344.905a1.114 1.114 0 01-.87.393c-.245 0-.592-.077-1.046-.227-.456-.146-.817-.222-1.083-.222-.711 0-1.262.234-1.652.704-.369.426-.553.97-.553 1.638 0 .633.166 1.172.495 1.603.369.505.879.76 1.536.76.294 0 .691-.077 1.198-.242.505-.158.878-.237 1.105-.237.326-.004.612.127.853.386m-8.797-1.614c.233-.178.352-.496.352-.96 0-1.286-.462-2.4-1.382-3.335-.924-.933-2.068-1.398-3.442-1.398-1.472 0-2.708.49-3.702 1.483-.999.987-1.498 2.168-1.498 3.556 0 1.459.477 2.661 1.44 3.62.956.957 2.209 1.436 3.76 1.436.963 0 1.916-.156 2.844-.477 1.222-.425 1.832-1.018 1.832-1.777 0-.33-.125-.613-.366-.85a1.218 1.218 0 00-.878-.355c-.187 0-.622.149-1.306.445-.681.297-1.262.447-1.743.447-.62 0-1.155-.116-1.579-.34-.539-.285-.805-.688-.805-1.224h5.374c.495.004.86-.089 1.097-.267m-6.473-1.649h3.831c-.01-.421-.223-.807-.624-1.149-.407-.348-.835-.518-1.293-.518-.458 0-.904.17-1.306.518-.407.344-.61.728-.61 1.149"/></g><defs><clipPath id="clip0_353_1276"><path fill="#fff" d="M0 0h179v56H0z"/></clipPath></defs></svg>