<svg width="287" height="548" fill="none" xmlns="http://www.w3.org/2000/svg"><g clip-path="url(#clip0_509_346)" stroke="#17161B" stroke-miterlimit="10"><path d="M143.639 15.942c5.122 9.285 20.851 6.44 27.206 14.933 4.578 6.115 1.986 15.038 4.758 22.139 5.481 14.098 27.197 13.492 36.182 25.664 5.912 8.004 4.574 19.057 7.041 28.693 6.192 24.195 35.626 37.419 40.505 61.91 3.947 19.796-9.666 38.388-22.468 54.003-10.223 12.448-20.73 25.163-34.527 33.467-2.801 1.671-5.832 3.275-7.634 5.998-5.114 7.732 2.638 17.21 5.28 26.091 3.918 13.15-4.599 27.394-16.163 34.762-11.565 7.369-25.605 9.533-39.118 11.981-13.513 2.447-27.561 5.609-38.109 14.415-10.624 8.881-16.202 22.248-21.399 35.088L22.09 540.894"/><path d="M35.833 546.413L8.385 535.314A11.776 11.776 0 011.959 529a11.758 11.758 0 01-.076-9.004l58.689-144.885c5.49-13.559 13.015-32.135 28.978-45.481 15.574-13.024 34.179-17.247 50.393-20.18l2.551-.459c10.586-1.901 20.583-3.693 27.026-7.791 2.621-1.671 4.302-4.152 4.737-5.43-.385-.982-1.075-2.506-1.61-3.68-1.848-4.077-4.148-9.148-5.381-15.163-2.705-13.179 1.35-22.945 5.235-28.823 4.975-7.519 11.468-11.37 15.348-13.663l.769-.46c10.035-6.023 19.003-16.967 27.678-27.548 6.109-7.427 18.777-22.895 16.979-31.985-1.024-5.138-7.212-11.779-13.763-18.797-9.679-10.393-21.742-23.325-26.424-41.696-1.301-5.063-1.832-9.704-2.3-13.785-.192-1.67-.456-3.972-.74-5.522-1.647-.882-4.319-2.022-6.242-2.845-4.758-2.038-10.151-4.344-15.511-7.936-8.254-5.527-14.128-12.67-17.46-21.229a50.602 50.602 0 01-3.069-13.889c-6.368-1.876-15.507-5.167-22.602-13.179a6.813 6.813 0 01-.4-8.472 6.828 6.828 0 012.268-2.004l39.891-21.985c4.181-2.017 3.433-3.195 6.857-1.817 6.096 2.448 12.936 6.425 18.354 13.664 7.171 9.582 7.982 19.795 8.362 26.14 1.368.631 2.956 1.312 4.207 1.847 8.466 3.621 20.068 8.58 28.459 19.95 8.099 10.96 9.437 22.657 10.419 31.2.302 2.64.59 5.129.987 6.683 1.346 5.259 7.417 11.775 13.843 18.676 10.252 11.011 22.996 24.708 26.976 44.629 2.927 14.703.506 30.033-7.216 45.564-5.691 11.45-13.338 21.4-20.759 30.452-9.491 11.579-20.069 24.49-34.284 34.729a66.162 66.162 0 012.321 6.441c6.99 23.43-4.298 50.051-27.378 64.738-15.285 9.724-31.691 12.669-46.183 15.263l-2.466.447c-9.516 1.721-20.136 3.952-25.751 8.647-5.782 4.833-10.034 15.376-13.818 24.674L51.169 539.921a11.77 11.77 0 01-6.323 6.419 11.793 11.793 0 01-9.013.073z"/></g><defs><clipPath id="clip0_509_346"><path fill="#fff" transform="translate(.813 .486)" d="M0 0h286v547H0z"/></clipPath></defs></svg>