<svg width="813" height="230" fill="none" xmlns="http://www.w3.org/2000/svg"><path d="M809.827 112.714c-34.754-4.997-70.828-.602-103.326 12.582-17.723 7.19-36.857 21.489-34.412 40.317 1.276 9.796 8.304 20.23 3.019 28.606-2.948 4.674-8.744 6.588-14.074 8.161-19.098 5.644-41.152 10.919-57.788.045-5.024-3.281-9.158-7.864-14.523-10.569-15.961-8.044-34.412 3.154-52.036 6.291-29.469 5.248-58.426-13.301-77.38-36.282-18.954-22.98-31.276-50.688-49.565-74.19-31.635-40.64-82.278-67.116-134.054-66.298-54.462.863-105.303 30.188-159.757 31.689-37.54 1.033-75.304-11.836-104.27-35.536" stroke="#1A1A1A" stroke-width=".65" stroke-miterlimit="10"/><path d="M21.17 6.144c1.959-2.355 5.437-2.778 7.89-.935 24.49 18.379 55.632 28.355 86.314 27.5 23.295-.637 46.392-7.09 70.73-14.127 1.024-.297 2.049-.593 3.082-.89 1.007-.297 2.031-.584 3.047-.88 26.53-7.676 53.95-15.333 83.141-15.791 28.399-.45 57.509 6.399 84.192 19.799 25.875 12.995 48.855 31.815 66.452 54.417 9.383 12.052 17.13 24.823 24.625 37.172 7.99 13.157 15.53 25.586 24.58 36.569 13.706 16.617 36.093 33.001 57.842 29.127 2.301-.413 4.799-1.06 7.432-1.815a288.919 288.919 0 005.905-1.788c2.121-.657 4.323-1.34 6.579-1.996 13.391-3.873 29.073-6.848 45.053 1.196 5.185 2.615 9.185 5.895 12.402 8.538 1.537 1.258 2.984 2.444 4.125 3.19 8.394 5.491 23.439 2.418 38.717-2.004.629-.18 1.259-.369 1.888-.548.063-.018.134-.036.206-.063-.17-.558-.341-1.088-.485-1.573-1.186-3.802-2.534-8.107-3.172-13.014-1.933-14.864 3.352-29.154 15.287-41.323 10.2-10.398 22.881-16.86 31.725-20.446a219.185 219.185 0 0121.479-7.441 220.43 220.43 0 0186.709-7.208c3.218.377 5.491 3.316 5.024 6.489l-4.242 29.028c-.449 3.056-3.262 5.195-6.354 4.854a179.12 179.12 0 00-69.615 5.94 178.648 178.648 0 00-17.444 6.04c-12.708 5.158-22.495 13.615-21.812 18.855.179 1.411.943 3.828 1.671 6.156 2.607 8.331 6.965 22.261-1.608 35.85-7.217 11.441-19.188 14.982-25.623 16.887-.809.243-1.618.477-2.436.71-10.047 2.912-20.796 5.572-31.877 6.309-15.746 1.052-29.425-2.148-40.659-9.499-2.992-1.959-5.491-4.009-7.693-5.806-1.824-1.492-3.702-3.038-4.826-3.604-2.894-1.456-8.646-.225-14.946 1.6a377.796 377.796 0 00-5.823 1.761 347.441 347.441 0 01-6.678 2.022c-3.739 1.079-7.603 2.076-11.647 2.795-18.119 3.227-37.396-.071-55.748-9.535-15.036-7.756-29.272-19.475-41.171-33.909-10.919-13.247-19.592-27.528-27.977-41.35-7.208-11.881-14.02-23.097-21.947-33.289-28.579-36.704-73.587-59.073-117.463-58.381-23.78.377-47.372 6.956-72.24 14.146-1.024.297-2.049.593-3.082.89-1.016.296-2.031.584-3.047.88-25.91 7.496-52.692 14.973-81.146 15.764-21.156.584-42.213-2.642-62.596-9.59-18.478-6.3-35.508-15.35-50.688-26.934-2.57-1.96-2.966-5.653-.899-8.134l18.838-22.63.009.019z" stroke="#1A1A1A" stroke-width=".65" stroke-miterlimit="10"/></svg>