<svg width="516" height="520" fill="none" xmlns="http://www.w3.org/2000/svg"><g clip-path="url(#clip0_514_234)" clip-rule="evenodd" stroke="#FDFFF9" stroke-miterlimit="10"><path d="M512.774 287.29c11.632-82.623-10.288-182.686-76.329-238.226-112.121-79.099-289.461-59.385-383.5 39.8-56.854 77.142-55.742 183.855-50.2 275.911 1.848 18.988 24.228 42.516 32.715 59.625 47.5 105.017 424.196 193.559 477.314-137.11z"/><path d="M272.814 29.478c27.1 0 53.384 3.657 78.121 10.868 24.967 7.268 47.718 17.992 67.658 31.884 25.957 22.2 45.688 54.646 57.099 93.97 10.682 36.736 13.591 78.19 8.207 116.733-11.769 72.925-40.967 127.744-86.761 162.953-48.005 36.883-104.476 44.626-143.412 44.626-43.452 0-88.328-9.423-126.365-26.557-17.107-7.702-32.285-16.823-43.89-26.373-10.387-8.555-17.782-17.298-21.39-25.275l-.22-.511-.24-.475c-3.919-7.891-9.42-15.832-14.733-23.544-4.063-5.822-8.253-11.894-11.285-17.267-2.94-5.23-3.618-7.763-3.76-8.416-2.655-44.381-4.283-91.647 1.571-137.152 6.206-48.384 19.94-86.774 41.972-117.279 47.265-48.982 120.904-78.185 197.408-78.185h.02z"/><path d="M272.812 58.732c24.334 0 47.872 3.263 69.961 9.703 21.399 6.23 40.874 15.322 57.92 26.97 21.089 18.478 37.308 45.745 46.954 78.957 9.523 32.751 12.136 69.757 7.369 104.225-10.574 65.167-36.011 113.638-75.691 144.123-41.503 31.888-91.217 38.584-125.615 38.584-39.41 0-80.035-8.514-114.387-23.973-14.801-6.639-27.677-14.356-37.303-22.287-10.12-8.33-12.891-13.754-13.346-14.755l-.439-.97-.454-.955c-4.864-9.785-11.228-19.014-16.867-27.16-3.68-5.326-7.477-10.822-9.85-15.04a31.484 31.484 0 01-.337-.603c-2.388-41.408-3.68-85.222 1.669-126.896 5.456-42.532 17.066-75.993 35.475-102.198 41.89-42.455 107.104-67.725 174.921-67.725h.02z"/></g><defs><clipPath id="clip0_514_234"><path fill="#fff" d="M0 0h516v520H0z"/></clipPath></defs></svg>