<svg width="616" height="480" fill="none" xmlns="http://www.w3.org/2000/svg"><g clip-path="url(#clip0_353_1031)" stroke="#17161B" stroke-miterlimit="10"><path d="M544.498 137.19c-6.482 8.392 2.384 21.692-2.88 30.901-3.79 6.632-13.007 7.803-18.42 13.171-10.755 10.636-1.561 30.32-9.156 43.405-4.991 8.607-15.664 11.776-23.525 17.872-19.735 15.305-20.161 47.57-40.691 61.788-16.592 11.495-39.065 6.4-58.483.865-15.487-4.428-31.333-9.01-44.44-18.366-2.647-1.906-5.324-4.049-8.54-4.619-9.128-1.616-14.74 9.266-21.837 15.222-10.507 8.825-26.963 6.677-38.324-1.003-11.36-7.68-18.93-19.7-26.55-31.125-7.621-11.424-16.11-23.055-28.384-29.231-12.374-6.215-26.856-6.016-40.705-5.677l-168.052 4.076"/><path d="M14.914 249.273l-.734-29.598a11.773 11.773 0 013.237-8.407 11.759 11.759 0 018.23-3.651l156.275-3.782c14.624-.356 34.66-.84 53.255 8.498 18.144 9.108 29.419 24.499 38.559 38.209l1.436 2.157c5.954 8.957 11.574 17.416 17.897 21.697 2.575 1.741 5.52 2.296 6.866 2.187.748-.744 1.872-1.983 2.736-2.941 3.006-3.317 6.744-7.444 11.772-10.968 11.016-7.724 21.589-7.887 28.527-6.661 8.877 1.574 14.993 5.999 18.641 8.647l.727.523c9.518 6.811 23.126 10.686 36.285 14.437 9.244 2.651 28.474 8.121 36.099 2.856 4.306-2.983 7.939-11.302 11.772-20.104 5.685-13.014 12.753-29.225 27.746-40.829 4.128-3.206 8.174-5.54 11.732-7.592 1.457-.841 3.464-1.999 4.773-2.876.153-1.862.137-4.767.127-6.859-.022-5.176-.052-11.041 1.112-17.388 1.788-9.77 6.005-18.001 12.532-24.463a50.635 50.635 0 0111.523-8.34c-.812-6.588-1.427-16.283 3.101-25.979a6.828 6.828 0 014.589-3.71 6.823 6.823 0 015.767 1.257l36.037 27.856c3.514 3.033 4.297 1.878 4.394 5.568.179 6.567-.749 14.424-5.236 22.275-5.939 10.39-14.987 15.197-20.657 18.069a174.475 174.475 0 00-.022 4.594c.045 9.208.111 21.825-6.984 34.047-6.835 11.79-17.034 17.669-24.481 21.969-2.302 1.326-4.472 2.581-5.739 3.563-4.29 3.327-7.854 11.489-11.629 20.13-6.025 13.785-13.523 30.925-30.218 42.501-12.326 8.533-27.354 12.41-44.675 11.502-12.768-.667-24.939-3.725-36.196-6.934-14.399-4.102-30.452-8.671-45.5-17.642a65.971 65.971 0 01-4.987 4.691c-18.716 15.733-47.631 15.965-70.285.632-15.002-10.157-24.23-24.038-32.374-36.302l-1.391-2.086c-5.364-8.046-11.635-16.902-18.176-20.187-6.734-3.382-18.098-3.09-28.135-2.863L26.97 260.761a11.785 11.785 0 01-12.056-11.488z"/></g><defs><clipPath id="clip0_353_1031"><path fill="#fff" transform="rotate(66.562 250.935 382.285)" d="M0 0h286v547H0z"/></clipPath></defs></svg>