<svg width="954" height="436" fill="none" xmlns="http://www.w3.org/2000/svg"><path d="M751.75 14.188c14.315 13.79 33.616 20.454 48.666 33.234 8.731 7.414 14.581 16.736 16.31 28.162 1.996 13.206.872 26.909 1.809 40.223 1.613 22.996 6.981 46.72 23.818 63.535 7.161 7.147 16.087 12.824 26.015 15.123 10.028 2.319 19.805.216 29.711-1.679 11.282-2.154 26.253-4.388 33.263 7.312 6.015 10.043.648 23.364-6.866 31.008-8.782 8.927-22.003 11.96-33.645 15.259-11.181 3.17-21.714 7.205-31.462 13.645-18.436 12.19-32.499 29.892-44.559 48.155a419.712 419.712 0 00-8.357 13.22c-3.235 5.31-6.109 11.376-10.619 15.749-12.349 11.959-27.377-1.067-36.966-9.755-34.783-31.505-77.678-59.3-126.524-56.432-49.913 2.932-92.945 33.205-130.826 63.204-38.983 30.871-78.153 64.912-127.676 76.929-43.356 10.526-91.972 5.23-129.413-20.1-19.215-13.004-32.629-31.426-47.802-48.587-15.172-17.161-32.794-30.662-55.719-35.078-22.758-4.388-46.634-.548-68.14 7.528-19.502 7.32-40.056 19.431-49.508 38.89-4.02 8.278-5.036 17.269-2.442 26.123.086.295.54.166.46-.13-7.42-25.338 15.635-46.72 35.872-57.469 21.685-11.52 47.686-17.817 72.238-15.994 12.435.922 24.726 4.121 35.742 10.036 10.864 5.835 20.035 14.207 28.313 23.241 15.223 16.613 28.097 35.28 46.432 48.781 34.315 25.28 79.357 32.744 120.876 25.893 47.895-7.903 86.979-36.577 124.06-66.144 39.906-31.822 81.987-66.691 133.981-75.156 53.003-8.631 99.99 19.149 138.08 53.269 7.521 6.736 16.282 15.943 27.125 16.268 10.071.302 15.403-8.394 19.963-16.016 12.154-20.295 25.331-40.604 43.176-56.403 9.107-8.062 19.438-14.769 30.835-19.099 11.318-4.301 23.472-6.189 34.502-11.297 8.703-4.027 15.857-10.151 19.596-19.156 2.997-7.212 3.502-16.023-1.556-22.456-5.54-7.046-14.546-8.134-22.91-7.255-11.354 1.188-22.499 5.36-34.034 4.085-25.381-2.796-42.996-25.908-49.638-48.89-3.746-12.968-4.921-26.512-5.418-39.948-.468-12.58.886-26.145-3.091-38.277-5.893-17.983-23.421-27.5-38.709-36.498-8.689-5.115-17.327-10.389-24.625-17.42-.223-.21-.554.122-.338.338" fill="#000"/><path d="M331.148 435.51c-45.82-.209-90.711-16.368-122.67-49.862-15.352-16.087-27.679-36.115-46.166-48.947-16.923-11.743-38.176-13.645-58.06-10.41-20.417 3.314-43.198 11.412-57.44 27.103-4.374 4.82-9.208 11.751-7.99 18.674.41 2.356.785 1.362-1.067 2.241-1.887.893-4.222 1.325-6.217 1.952-5.987 1.88-11.967 3.761-17.954 5.641L6.43 384.15c-.569.18-3.162 1.433-3.79 1.189-.51-.202-1.094-4.59-1.274-5.548a50.833 50.833 0 01-.915-8.667c-.123-5.922.807-11.83 2.593-17.471 3.631-11.476 10.785-21.541 19.33-29.891 17.586-17.189 41.144-27.413 64.825-32.996 22.68-5.346 46.951-6.008 69.35 1.037 22.651 7.126 40.345 22.154 55.704 39.783 14.308 16.412 27.168 34.012 45.849 45.806 37.658 23.767 87.03 25.23 128.196 10.259 45.049-16.383 80.668-51.166 118.16-79.681 37.441-28.472 80.783-53.774 128.93-55.942 49.235-2.219 93.434 22.852 129.723 53.939 6.448 5.519 12.528 12.709 20.172 16.628.123.065.245.029.325-.086 8.702-12.579 15.871-26.095 25.028-38.414 10.129-13.624 21.707-26.361 35.453-36.426 12.751-9.337 26.822-15.259 41.958-19.545 9.719-2.753 26.966-5.469 28.955-17.846.029-.165-.065-.281-.231-.302-4.575-.562-9.387.634-13.861 1.491-7.046 1.354-14.106 2.831-21.311 2.997-13.486.317-26.649-3.97-37.866-11.361-22.291-14.69-34.653-39.005-39.408-64.696-2.277-12.284-3.019-24.776-3.329-37.24-.238-9.632 1.347-21.483-3.213-30.36-4.524-8.803-14.387-14.271-22.543-19.127-10.677-6.354-21.606-12.384-31.008-20.597-.987-.865-3.472-2.522-3.371-3.415.036-.317 1.03-1.052 1.225-1.247 1.887-1.93 3.782-3.854 5.669-5.785 4.691-4.784 9.381-9.567 14.078-14.344 1.455-1.484 2.889-3.407 4.56-4.647.224-.165.872-1.174 1.153-1.174.418 0 3.84 3.509 4.301 3.876 9.078 7.125 19.574 12.233 29.293 18.386 8.646 5.475 16.931 11.707 23.458 19.66 8.674 10.57 12.925 23.364 13.976 36.894 1.773 22.867-.806 46.39 7.774 68.248 3.624 9.236 9.74 17.752 18.018 23.371 8.343 5.663 16.52 5.836 26.131 4.049 13.177-2.45 26.75-5.49 39.811-.8 12.097 4.345 21.398 14.719 24.063 27.334 2.529 11.966-.778 24.625-7.334 34.761-7.399 11.441-18.803 18.652-31.382 23.328-10.375 3.854-21.434 5.735-31.621 10.086-9.603 4.1-18.14 10.339-25.655 17.529-15.568 14.877-26.771 33.414-37.859 51.677-5.663 9.337-13.025 17.651-23.803 20.965-12.774 3.926-25.734-.389-36.339-7.767-10.569-7.348-19.546-16.93-29.647-24.912-8.847-6.996-18.111-13.509-27.917-19.107-20.576-11.757-43.464-19.171-67.361-17.787-48.76 2.817-90.293 35.388-126.884 64.602-40.914 32.665-82.794 65.913-135.372 76.612-13.191 2.68-26.605 3.991-40.063 4.049-.303 0-.303.475 0 .475 39.105-.173 76.006-11.844 109.327-32.009 33.263-20.122 61.951-46.498 93.117-69.516 30.006-22.168 65.373-43.046 103.715-43.882 39.466-.857 74.364 21.844 103.023 46.843 12.248 10.677 24.481 23.083 41.671 24.322 14.286 1.023 26.303-6.837 34.148-18.277 9.193-13.415 16.686-27.759 26.787-40.597 10.597-13.465 23.349-25.958 39.314-32.766 16.714-7.132 35.114-8.703 50.172-19.733 11.728-8.595 19.848-22.384 21.109-36.93 1.282-14.877-5.749-29.336-18.804-36.836-15.144-8.703-31.887-4.611-48.025-1.801-10.792 1.88-19.74-.094-28.118-7.442-7.176-6.297-12.082-14.553-15.072-23.559-5.922-17.809-5.663-36.944-6.059-55.488-.353-16.361-3.314-32.016-13.645-45.179-9.107-11.606-21.779-19.423-34.329-26.793-8.293-4.878-16.823-9.625-23.847-16.29a.246.246 0 00-.339 0c-9.034 9.208-18.061 18.415-27.095 27.615a.245.245 0 000 .339c8.263 7.953 17.823 14.084 27.665 19.891 9.495 5.605 20.928 10.98 27.6 20.1 6.801 9.294 4.791 23.026 5.079 33.933.281 10.605.893 21.217 2.5 31.714 3.465 22.564 11.966 44.185 28.58 60.308 15.72 15.259 36.519 23.206 58.392 20.295 5.461-.727 10.828-1.952 16.246-2.918 2.622-.468 5.943-1.527 8.551-1.008 3.444.691-.173 5.144-1.736 6.844-3.847 4.193-10.245 6.052-15.482 7.702-6.203 1.952-12.529 3.494-18.717 5.497-20.454 6.62-38.069 18.933-52.787 34.466-7.997 8.436-15.13 17.665-21.729 27.232a371.115 371.115 0 00-8.948 13.653c-3.004 4.798-5.59 10.23-8.998 14.747-1.47 1.952-1.952 1.218-3.746-.014-2.046-1.405-3.934-3.026-5.793-4.669-4.92-4.337-9.747-8.775-14.776-12.989-8.588-7.183-17.507-13.984-26.844-20.166-19.747-13.09-41.526-23.464-64.825-28.277-22.644-4.676-45.971-3.472-68.284 2.342-47.08 12.261-85.927 42.534-123.231 72.354-19.481 15.568-39.055 31.281-60.69 43.81-22.413 12.982-46.779 21.526-72.707 23.508-24.546 1.88-49.877-1.78-72.253-12.313-9.69-4.56-18.775-10.388-26.844-17.442-9.251-8.09-16.981-17.737-24.841-27.131-14.25-17.017-29.452-33.429-49.855-43.04-19.949-9.394-42.434-11.844-64.198-9.365-22.982 2.615-46.613 10.086-66.151 22.636-17.334 11.131-33.22 27.55-37.996 48.176-2.14 9.258-1.73 18.695.98 27.78a.237.237 0 00.288.166c12.305-3.869 24.603-7.731 36.908-11.599.122-.036.202-.166.166-.288-2.817-10.411 6.296-20.043 13.652-26.088 9.625-7.91 21.231-13.018 33.025-16.772 22.615-7.197 49.134-9.192 70.524 2.803 20.85 11.693 34.034 33.796 50.035 50.849 14.625 15.583 32.081 28.032 51.677 36.591 22.831 9.971 47.657 14.546 72.505 14.654.303 0 .303-.476 0-.476" fill="#000"/></svg>