<svg width="943" height="495" fill="none" xmlns="http://www.w3.org/2000/svg"><path d="M8.808 349.857c40.619-7.635 79.103-26.323 110.226-53.52 16.97-14.831 32.788-38.187 22.819-58.402-5.185-10.517-17.022-19.563-14.363-30.985 1.487-6.377 7.199-10.734 12.534-14.537 19.1-13.622 41.631-27.955 64.341-22.075 6.852 1.775 13.224 5.345 20.234 6.336 20.868 2.95 37.107-16.66 55.526-26.906 30.801-17.131 70.178-7.332 100.12 11.261 29.943 18.593 54.316 45.012 83.726 64.437 50.858 33.588 117.435 44.031 174.775 23.375 60.323-21.731 105.659-74.05 165.722-96.494 41.404-15.472 88.415-15.413 129.781.165" stroke="#17161B" stroke-miterlimit="10"/><path d="M928.064 168.945c-1.277 3.387-4.996 5.191-8.433 4.058-34.339-11.305-72.857-10.642-106.696 2.008-25.694 9.604-48.938 25.647-73.33 42.83-1.03.723-2.056 1.451-3.09 2.178l-3.047 2.15c-26.593 18.736-54.192 37.786-86.519 49.433-31.455 11.33-66.506 14.739-101.371 9.854-33.814-4.738-66.64-17.115-94.93-35.798-15.08-9.96-28.624-21.35-41.72-32.368-13.955-11.737-27.137-22.824-41.436-31.703-21.654-13.446-52.884-23.309-75.607-10.672-2.409 1.337-4.943 3.016-7.581 4.876a389.052 389.052 0 00-5.89 4.263c-2.112 1.548-4.297 3.15-6.564 4.746-13.424 9.458-29.744 18.78-50.629 15.827-6.776-.958-12.494-3.121-17.092-4.859-2.192-.827-4.26-1.611-5.817-2.012-11.462-2.968-27.03 6.22-42.35 17.014l-1.887 1.336c-.063.043-.131.095-.212.148.403.56.796 1.097 1.145 1.579 2.788 3.818 5.943 8.142 8.541 13.408 7.867 15.96 7.479 34.025-1.13 52.249-7.358 15.574-18.998 27.66-27.466 35.063a257.046 257.046 0 01-21.058 16.544 257.374 257.374 0 01-93.787 41.148 6.778 6.778 0 01-8.092-5.377l-6.444-34.222c-.676-3.6 1.634-7.081 5.21-7.872a208.887 208.887 0 0092.341-46.643c12.17-10.637 19.815-23.868 17.042-29.496-.746-1.515-2.514-3.94-4.226-6.279-6.103-8.36-16.319-22.354-12-40.884 3.635-15.606 15.608-24.149 22.042-28.735.805-.577 1.619-1.152 2.437-1.727 10.074-7.1 21.018-14.186 33.074-19.238 17.125-7.178 33.59-8.806 48.932-4.834 4.094 1.059 7.654 2.404 10.797 3.595 2.604.985 5.294 2 6.757 2.209 3.782.534 9.719-3.046 16.029-7.493a373.662 373.662 0 005.803-4.201 448.94 448.94 0 016.661-4.819c3.75-2.641 7.665-5.229 11.894-7.582 18.937-10.534 41.67-14.177 65.744-10.543 19.724 2.976 40.086 10.722 58.887 22.393 17.255 10.716 32.405 23.458 47.055 35.779 12.596 10.597 24.498 20.606 37.239 29.02 45.935 30.338 104.66 38.306 153.256 20.801 26.338-9.488 50.085-25.872 75.002-43.429 1.03-.723 2.055-1.447 3.085-2.174 1.016-.717 2.036-1.433 3.052-2.154 25.967-18.294 52.919-36.906 84.308-48.636 23.333-8.721 48.03-13.125 73.402-13.092 23.004.03 45.442 3.703 66.803 10.935 3.616 1.222 5.481 5.223 4.134 8.795l-12.281 32.605.013-.002z" stroke="#17161B" stroke-miterlimit="10"/></svg>