<svg width="22" height="22" viewBox="0 0 22 22" fill="none" xmlns="http://www.w3.org/2000/svg">
<path d="M16.568 0H5.43737C3.99642 0.00136518 2.61488 0.574385 1.59598 1.59329C0.577071 2.6122 0.00405073 3.99374 0.00268555 5.43469V16.5653C0.00405073 18.0063 0.577071 19.3878 1.59598 20.4067C2.61488 21.4256 3.99642 21.9986 5.43737 22H16.568C18.0088 21.9981 19.39 21.4249 20.4088 20.4061C21.4276 19.3873 22.0008 18.0061 22.0027 16.5653V5.43469C22.0008 3.99391 21.4276 2.61268 20.4088 1.59389C19.39 0.575105 18.0088 0.00190995 16.568 0ZM16.4546 6.94375C16.1782 6.94341 15.9081 6.86112 15.6785 6.7073C15.4489 6.55348 15.2701 6.33502 15.1646 6.07956C15.0592 5.8241 15.0319 5.5431 15.0861 5.27211C15.1404 5.00112 15.2738 4.7523 15.4694 4.55712C15.6651 4.36194 15.9142 4.22916 16.1854 4.17558C16.4565 4.122 16.7374 4.15001 16.9926 4.25609C17.2478 4.36216 17.4658 4.54153 17.6191 4.77151C17.7723 5.00149 17.854 5.27176 17.8536 5.54812C17.8534 5.73163 17.817 5.91329 17.7466 6.08274C17.6762 6.25218 17.5731 6.4061 17.4431 6.53569C17.3132 6.66529 17.1591 6.76803 16.9894 6.83804C16.8198 6.90806 16.6381 6.94398 16.4546 6.94375ZM11.0027 5.76125C12.0388 5.76125 13.0517 6.0685 13.9132 6.64414C14.7747 7.21978 15.4462 8.03796 15.8427 8.99522C16.2392 9.95247 16.3429 11.0058 16.1408 12.022C15.9386 13.0382 15.4397 13.9717 14.707 14.7044C13.9744 15.437 13.0409 15.936 12.0247 16.1381C11.0085 16.3402 9.95516 16.2365 8.9979 15.84C8.04065 15.4435 7.22247 14.772 6.64682 13.9105C6.07118 13.049 5.76394 12.0361 5.76394 11C5.76594 9.61121 6.31852 8.27988 7.30054 7.29785C8.28256 6.31583 9.6139 5.76325 11.0027 5.76125Z" fill="white"/>
<path d="M11.0027 14.1523C11.6261 14.1523 12.2355 13.9674 12.7539 13.621C13.2723 13.2747 13.6763 12.7824 13.9149 12.2064C14.1535 11.6304 14.2159 10.9966 14.0943 10.3851C13.9726 9.77366 13.6724 9.212 13.2316 8.77116C12.7907 8.33031 12.2291 8.0301 11.6176 7.90847C11.0061 7.78684 10.3723 7.84927 9.79636 8.08785C9.22037 8.32643 8.72807 8.73045 8.3817 9.24883C8.03534 9.7672 7.85046 10.3766 7.85046 11.0001C7.85137 11.8358 8.18377 12.6371 8.77472 13.228C9.36567 13.819 10.1669 14.1514 11.0027 14.1523Z" fill="white"/>
</svg>
