<svg width="30" height="22" viewBox="0 0 30 22" fill="none" xmlns="http://www.w3.org/2000/svg">
<path d="M3.35187 0C1.51148 0 0 1.51146 0 3.35186V18.6481C0 20.4885 1.51148 22 3.35187 22H26.6449C28.4854 22 30.0027 20.4885 30.0027 18.6481V3.35186C30.0027 1.51146 28.4854 0 26.6449 0H3.35187ZM13.3254 5.43212C13.8629 5.43212 14.4005 5.6075 14.8685 5.95756L19.6014 9.49303C20.0693 9.84311 20.3905 10.4019 20.3905 10.999C20.3905 11.5962 20.0694 12.1549 19.6014 12.505L14.8685 16.0424C13.9324 16.7426 12.7184 16.7426 11.7823 16.0424C11.6585 15.9492 11.5581 15.8286 11.489 15.6899C11.4198 15.5513 11.3838 15.3985 11.3838 15.2435V6.75451C11.3841 6.59991 11.4203 6.44749 11.4894 6.30921C11.5586 6.17093 11.6588 6.05057 11.7823 5.95756C12.2503 5.6075 12.7879 5.43212 13.3254 5.43212Z" fill="white"/>
</svg>
