<svg width="51" height="67" fill="none" xmlns="http://www.w3.org/2000/svg"><path d="M50.355 23.164C49.415 10.87 39.392.924 27.018.062 12.295-.956 0 10.712 0 25.279c0 5.247 1.566 10.102 4.307 14.096 3.29 4.855 12.687 18.56 17.699 25.922 1.566 2.27 4.934 2.27 6.422 0a6057.66 6057.66 0 0017.698-25.922c3.133-4.542 4.7-10.18 4.23-16.21zM25.217 39.688c-7.988 0-14.488-6.5-14.488-14.488 0-7.988 6.5-14.487 14.488-14.487 7.988 0 14.488 6.5 14.488 14.487 0 7.988-6.5 14.488-14.488 14.488z" fill="#0033A0"/></svg>